<mxfile host="app.diagrams.net" agent="Mozilla/5.0 (Windows NT 10.0; Win64; x64) AppleWebKit/537.36 (KHTML, like Gecko) Chrome/136.0.0.0 Safari/537.36" version="27.0.6">
  <diagram name="Page-1" id="tZhoZH78VZmJ7hNVHVeS">
    <mxGraphModel dx="1251" dy="660" grid="1" gridSize="10" guides="1" tooltips="1" connect="1" arrows="1" fold="1" page="1" pageScale="1" pageWidth="850" pageHeight="1100" math="0" shadow="0">
      <root>
        <mxCell id="0" />
        <mxCell id="1" parent="0" />
        <mxCell id="IE4iEizyDae3PbYmncjM-1" value="" style="rounded=0;whiteSpace=wrap;html=1;fillColor=#dae8fc;gradientColor=#7ea6e0;strokeColor=#6c8ebf;" vertex="1" parent="1">
          <mxGeometry x="40" y="190" width="280" height="190" as="geometry" />
        </mxCell>
        <mxCell id="IE4iEizyDae3PbYmncjM-2" value="&lt;b&gt;Jenkins CI&lt;/b&gt;" style="text;html=1;align=center;verticalAlign=middle;resizable=0;points=[];autosize=1;strokeColor=none;fillColor=none;" vertex="1" parent="1">
          <mxGeometry x="140" y="190" width="80" height="30" as="geometry" />
        </mxCell>
        <mxCell id="IE4iEizyDae3PbYmncjM-4" value="" style="sketch=0;aspect=fixed;pointerEvents=1;shadow=0;dashed=0;html=1;strokeColor=none;labelPosition=center;verticalLabelPosition=bottom;verticalAlign=top;align=center;fillColor=#00188D;shape=mxgraph.mscae.enterprise.code_file" vertex="1" parent="1">
          <mxGeometry x="60" y="260" width="68.6" height="70" as="geometry" />
        </mxCell>
        <mxCell id="IE4iEizyDae3PbYmncjM-5" value="&lt;b&gt;Scanner&lt;br&gt;Agent&lt;/b&gt;" style="ellipse;whiteSpace=wrap;html=1;aspect=fixed;fillColor=#f8cecc;gradientColor=#ea6b66;strokeColor=#b85450;" vertex="1" parent="1">
          <mxGeometry x="220" y="255" width="80" height="80" as="geometry" />
        </mxCell>
        <mxCell id="IE4iEizyDae3PbYmncjM-6" style="edgeStyle=orthogonalEdgeStyle;rounded=0;orthogonalLoop=1;jettySize=auto;html=1;entryX=1;entryY=0.5;entryDx=0;entryDy=0;entryPerimeter=0;" edge="1" parent="1" source="IE4iEizyDae3PbYmncjM-5" target="IE4iEizyDae3PbYmncjM-4">
          <mxGeometry relative="1" as="geometry" />
        </mxCell>
        <mxCell id="IE4iEizyDae3PbYmncjM-7" value="&lt;b&gt;Scanner Server&lt;/b&gt;" style="rounded=1;whiteSpace=wrap;html=1;fillColor=#e6d0de;gradientColor=#d5739d;strokeColor=#996185;" vertex="1" parent="1">
          <mxGeometry x="400" y="40" width="160" height="80" as="geometry" />
        </mxCell>
        <mxCell id="IE4iEizyDae3PbYmncjM-8" style="edgeStyle=orthogonalEdgeStyle;rounded=0;orthogonalLoop=1;jettySize=auto;html=1;entryX=0.545;entryY=0.987;entryDx=0;entryDy=0;entryPerimeter=0;" edge="1" parent="1" source="IE4iEizyDae3PbYmncjM-5" target="IE4iEizyDae3PbYmncjM-7">
          <mxGeometry relative="1" as="geometry" />
        </mxCell>
        <mxCell id="IE4iEizyDae3PbYmncjM-9" style="edgeStyle=orthogonalEdgeStyle;rounded=0;orthogonalLoop=1;jettySize=auto;html=1;entryX=0.522;entryY=0.085;entryDx=0;entryDy=0;entryPerimeter=0;" edge="1" parent="1" source="IE4iEizyDae3PbYmncjM-7" target="IE4iEizyDae3PbYmncjM-2">
          <mxGeometry relative="1" as="geometry" />
        </mxCell>
        <mxCell id="IE4iEizyDae3PbYmncjM-10" value="&lt;b&gt;Analyse and send the results back to CI&lt;/b&gt;" style="text;html=1;align=center;verticalAlign=middle;resizable=0;points=[];autosize=1;strokeColor=none;fillColor=none;" vertex="1" parent="1">
          <mxGeometry x="120" y="90" width="250" height="30" as="geometry" />
        </mxCell>
      </root>
    </mxGraphModel>
  </diagram>
</mxfile>
